<svg id="Layer_1" data-name="Layer 1" xmlns="http://www.w3.org/2000/svg" viewBox="0 0 144 144"><defs><style>.cls-1{fill:#ea0029;}.cls-2{fill:#fff;}.cls-3{fill:none;}</style></defs><title>BUTT_LOGO_RED</title><circle class="cls-1" cx="72" cy="72" r="71.99"/><path class="cls-2" d="M252.64,414.63a.64.64,0,0,0,.08-.49l-1-4.27a.67.67,0,0,0-.79-.49l-1.27.3a.68.68,0,0,0-.41.29.67.67,0,0,0-.08.5l.47,2-2.57.6a7.23,7.23,0,0,1-.53-1.56,4.6,4.6,0,0,1,.38-3.46,4.45,4.45,0,0,1,2.92-1.92c2.69-.64,4.7.7,5.38,3.57a6.44,6.44,0,0,1,.13,2.73.66.66,0,0,0,.13.51.65.65,0,0,0,.47.25l1.39.1a.64.64,0,0,0,.68-.52,9.11,9.11,0,0,0-.19-3.64c-1.07-4.56-4.6-7-8.78-6a7,7,0,0,0-4.57,3.2,7.73,7.73,0,0,0-.55,5.7,13.44,13.44,0,0,0,1.7,4,.64.64,0,0,0,.55.31l.15,0,5.9-1.38A.66.66,0,0,0,252.64,414.63Z" transform="translate(-234.02 -323.29)"/><path class="cls-2" d="M264.18,427.09a6.43,6.43,0,0,0-.79-5.18,6.69,6.69,0,0,0-4.26-3.15,7.45,7.45,0,0,0-5.51,1.06c-3.55,2.14-4.62,6-2.6,9.33a6.78,6.78,0,0,0,4.11,3.16,6.39,6.39,0,0,0,1.52.19,8.11,8.11,0,0,0,4.15-1.26A7.26,7.26,0,0,0,264.18,427.09Zm-5.06,1.51c-1.95,1.18-4.5,1.41-5.8-.73s.12-4.27,2-5.38a5.82,5.82,0,0,1,2.94-.9h.36a3.14,3.14,0,0,1,2.51,1.61C262.37,425.32,261,427.49,259.12,428.6Z" transform="translate(-234.02 -323.29)"/><path class="cls-2" d="M269.62,430.58a.66.66,0,0,0-.92,0l-8.6,9.24a.65.65,0,0,0,0,.92l5.42,5.05a.67.67,0,0,0,.44.18h0a.66.66,0,0,0,.45-.21l.93-1a.65.65,0,0,0,0-.92l-3.69-3.44,7.22-7.75a.66.66,0,0,0,0-.93Z" transform="translate(-234.02 -323.29)"/><path class="cls-2" d="M281.94,439.9a27.27,27.27,0,0,0-3.46-1.48.65.65,0,0,0-.79.32l-5.69,11a.66.66,0,0,0,.22.85c.8.52,1.73,1.06,2.77,1.6a10.85,10.85,0,0,0,4.86,1.36,6.09,6.09,0,0,0,1.68-.23,7.11,7.11,0,0,0,4.36-3.81,6.34,6.34,0,0,0,.43-5.42C285.68,442.47,284.24,441.09,281.94,439.9Zm1.16,8.26h0c-1.41,2.73-3.7,3.38-6.62,1.88l-1-.52,4-7.84a12.3,12.3,0,0,1,1.25.56,5.08,5.08,0,0,1,2.73,2.78A4,4,0,0,1,283.1,448.16Z" transform="translate(-234.02 -323.29)"/><path class="cls-2" d="M300,446l-7.06-1.41a.65.65,0,0,0-.76.52l-2.46,12.37a.66.66,0,0,0,.1.49.64.64,0,0,0,.41.27l7.35,1.46.13,0a.66.66,0,0,0,.36-.11.68.68,0,0,0,.28-.42l.26-1.34a.66.66,0,0,0-.51-.77l-5-1,.63-3.18,4.44.88a.65.65,0,0,0,.49-.1.69.69,0,0,0,.28-.42l.26-1.32a.65.65,0,0,0-.51-.76l-4.44-.88.52-2.63,4.73.94a.7.7,0,0,0,.49-.1.72.72,0,0,0,.28-.42l.26-1.34A.65.65,0,0,0,300,446Z" transform="translate(-234.02 -323.29)"/><path class="cls-2" d="M315.05,445.6l-1.61.13a.6.6,0,0,0-.45.23.62.62,0,0,0-.15.47l.42,5.26c.07.84.14,1.63.22,2.41q-.56-.78-1.2-1.59l-4.76-6a.65.65,0,0,0-.57-.24l-1.87.15a.65.65,0,0,0-.6.7l1,12.57a.68.68,0,0,0,.23.45.66.66,0,0,0,.42.15h.06l1.61-.13a.65.65,0,0,0,.6-.7l-.43-5.37c-.08-1-.16-1.81-.24-2.59.41.57.88,1.18,1.4,1.84l4.73,6a.64.64,0,0,0,.56.25l1.74-.14a.64.64,0,0,0,.59-.7l-1-12.57A.64.64,0,0,0,315.05,445.6Z" transform="translate(-234.02 -323.29)"/><path class="cls-2" d="M336.61,443.7a3.36,3.36,0,0,0-.1-3.06,3.2,3.2,0,0,0-2.54-1.72,6.27,6.27,0,0,0-4,1.08,17.16,17.16,0,0,0-2.71,1.85.65.65,0,0,0-.15.81l6.1,10.8a.64.64,0,0,0,.57.34.74.74,0,0,0,.25-.05,22.15,22.15,0,0,0,2.47-1.22c2.07-1.17,3.26-2.33,3.73-3.66a4,4,0,0,0-.31-3.28A3.68,3.68,0,0,0,336.61,443.7ZM333,441.63a1.12,1.12,0,0,1,.95.65c.44.78,0,1.71-1.22,2.37l-.79.45-1.4-2.47c.21-.14.45-.29.74-.45A3.49,3.49,0,0,1,333,441.63Zm1.94,8.79-1.76-3.11.68-.37a4,4,0,0,1,2-.62,1.59,1.59,0,0,1,1.3,2.33,3.94,3.94,0,0,1-1.56,1.39Z" transform="translate(-234.02 -323.29)"/><path class="cls-2" d="M346.16,427.57a.64.64,0,0,0-.92,0L344,428.82a.65.65,0,0,0,0,.92l5.34,5.22c1.62,1.58,1.82,3,.6,4.21-1.41,1.45-3,.47-4.12-.6l-5.34-5.22a.59.59,0,0,0-.47-.18.68.68,0,0,0-.46.19l-1.21,1.25a.65.65,0,0,0,0,.92l5.32,5.19a6.33,6.33,0,0,0,4.35,2.11h0a5.24,5.24,0,0,0,3.73-1.78c2.52-2.59,2.38-5.63-.4-8.35Z" transform="translate(-234.02 -323.29)"/><path class="cls-2" d="M362.36,425,353.07,420l1.64-3a.66.66,0,0,0-.26-.88l-1.22-.67a.66.66,0,0,0-.88.26l-4.72,8.66a.67.67,0,0,0-.05.5.64.64,0,0,0,.31.39l1.22.66a.65.65,0,0,0,.88-.26l1.63-3,9.28,5.06a.72.72,0,0,0,.32.08.57.57,0,0,0,.18,0,.62.62,0,0,0,.39-.32l.83-1.52a.67.67,0,0,0,.06-.5A.66.66,0,0,0,362.36,425Z" transform="translate(-234.02 -323.29)"/><path class="cls-2" d="M367.94,409.43,357.65,407l.8-3.32a.66.66,0,0,0-.48-.79l-1.35-.32a.64.64,0,0,0-.49.08.67.67,0,0,0-.3.4l-2.29,9.59a.67.67,0,0,0,.08.5.62.62,0,0,0,.4.29l1.35.32a.39.39,0,0,0,.15,0,.64.64,0,0,0,.63-.5l.8-3.3,10.28,2.46a.64.64,0,0,0,.49-.08.66.66,0,0,0,.3-.41l.4-1.69A.64.64,0,0,0,367.94,409.43Z" transform="translate(-234.02 -323.29)"/><path class="cls-2" d="M268,368.43l-4.51-3.67c.23-.25.44-.5.65-.75h0a8.54,8.54,0,0,0,2.21-6.08,5.71,5.71,0,0,0-2.27-4,5.36,5.36,0,0,0-4.47-1.21,8.5,8.5,0,0,0-4.81,3.33,29.4,29.4,0,0,0-2.63,3.78.88.88,0,0,0,.2,1.12l13.05,10.62a.89.89,0,0,0,.56.2h.09a.89.89,0,0,0,.59-.32l1.47-1.8A.88.88,0,0,0,268,368.43Zm-10.44-10.19a4.32,4.32,0,0,1,2.11-1.57,2.08,2.08,0,0,1,1.91.51,2.44,2.44,0,0,1,1,1.95,4.45,4.45,0,0,1-1.16,2.61c-.25.31-.48.56-.69.78l-4-3.23C257,359,257.22,358.65,257.56,358.24Z" transform="translate(-234.02 -323.29)"/><path class="cls-2" d="M288.3,350.46a.89.89,0,0,0-1.19-.36L281,353.38,279,349.52l5.38-2.89a.88.88,0,0,0,.36-1.19l-.86-1.61a.86.86,0,0,0-.53-.42.83.83,0,0,0-.67.07l-5.38,2.89-1.71-3.19,5.73-3.08a.88.88,0,0,0,.36-1.19l-.87-1.63a.89.89,0,0,0-1.2-.36l-8.55,4.6a.89.89,0,0,0-.36,1.2l8.06,15a.89.89,0,0,0,.78.47.94.94,0,0,0,.42-.11l8.91-4.79a.88.88,0,0,0,.35-1.19Z" transform="translate(-234.02 -323.29)"/><path class="cls-2" d="M307,347.2a.87.87,0,0,0-1-.77l-6.87.77-.49-4.35,6.07-.68a.89.89,0,0,0,.78-1l-.21-1.8a.83.83,0,0,0-.32-.59.87.87,0,0,0-.65-.19l-6.08.69-.4-3.6,6.47-.73a.93.93,0,0,0,.59-.33.89.89,0,0,0,.18-.65l-.2-1.83a.89.89,0,0,0-1-.78l-9.65,1.1a.88.88,0,0,0-.78,1l1.92,16.92a.88.88,0,0,0,.87.78h.1L306.39,350a.85.85,0,0,0,.59-.32.91.91,0,0,0,.19-.65Z" transform="translate(-234.02 -323.29)"/><path class="cls-2" d="M331.1,336.15l-2.77-.81a.83.83,0,0,0-.72.1l-7,4.55,1.61-5.53a.88.88,0,0,0-.6-1.09l-2.22-.65a.86.86,0,0,0-.67.07.88.88,0,0,0-.43.53l-4.78,16.34a.87.87,0,0,0,.6,1.09l2.22.66a.87.87,0,0,0,.67-.08.89.89,0,0,0,.43-.52l1.73-5.91.93-.56,3,8.65a.89.89,0,0,0,.59.56l2.64.78a1,1,0,0,0,.24,0,.88.88,0,0,0,.84-1.17l-3.75-10.71,7.67-4.74a.86.86,0,0,0,.41-.86A.87.87,0,0,0,331.1,336.15Z" transform="translate(-234.02 -323.29)"/><path class="cls-2" d="M345.86,345.06a.87.87,0,0,0-.44-.7l-2.12-1.2a.88.88,0,0,0-1.07.15,33.81,33.81,0,0,1-4.54,3.84.88.88,0,0,0-.4.77.91.91,0,0,0,.46.74l1.33.71a.88.88,0,0,0,.42.11,1,1,0,0,0,.33-.07,28.89,28.89,0,0,0,5.71-3.6A.84.84,0,0,0,345.86,345.06Z" transform="translate(-234.02 -323.29)"/><path class="cls-2" d="M360.56,361.64a9.34,9.34,0,0,0-1.93-4.06,7.48,7.48,0,0,0-4.11-2.86,5.06,5.06,0,0,0-4.33.9c-2.07,1.59-2.47,4.1-1.24,7.67.76,2.4.47,3.18-.32,3.79a1.67,1.67,0,0,1-1.51.33,3.54,3.54,0,0,1-1.85-1.38,7.82,7.82,0,0,1-1.48-3.56.87.87,0,0,0-.41-.64.89.89,0,0,0-.76-.08l-1.82.66a.89.89,0,0,0-.58.91,10.61,10.61,0,0,0,2.11,4.76,8,8,0,0,0,4.57,3.19,5.24,5.24,0,0,0,1.11.12,5.34,5.34,0,0,0,3.28-1.14c2.76-2.11,2.29-5.05,1.48-7.65s-.61-3.31.12-3.87a1.42,1.42,0,0,1,1.14-.26,3,3,0,0,1,1.71,1.23,6.43,6.43,0,0,1,1.27,2.82.9.9,0,0,0,.42.6.91.91,0,0,0,.72.09l1.81-.59A.87.87,0,0,0,360.56,361.64Z" transform="translate(-234.02 -323.29)"/><path class="cls-2" d="M245.77,392.74h-2.7V391h2.39a.34.34,0,0,0,.34-.34V390a.35.35,0,0,0-.34-.35h-2.39v-1.41h2.55a.34.34,0,0,0,.34-.34v-.72a.35.35,0,0,0-.34-.35h-3.8a.35.35,0,0,0-.34.35v6.65a.34.34,0,0,0,.34.34h4a.35.35,0,0,0,.35-.34v-.72A.35.35,0,0,0,245.77,392.74Z" transform="translate(-234.02 -323.29)"/><path class="cls-2" d="M249.69,389.71c-1-.36-1.17-.6-1.17-.95s.26-.66,1-.66a2.54,2.54,0,0,1,1.18.28.31.31,0,0,0,.28,0,.33.33,0,0,0,.2-.2l.25-.7a.34.34,0,0,0-.16-.42,3.65,3.65,0,0,0-1.72-.36,2.33,2.33,0,0,0-2.61,2.14c0,1,.68,1.74,2.08,2.21,1,.37,1.09.67,1.09,1,0,.49-.42.79-1.12.79a3.05,3.05,0,0,1-1.45-.39.35.35,0,0,0-.3,0,.34.34,0,0,0-.2.22l-.23.72a.34.34,0,0,0,.14.39,4.16,4.16,0,0,0,2,.48c1.93,0,2.8-1.14,2.8-2.26C251.71,390.63,250.69,390.08,249.69,389.71Z" transform="translate(-234.02 -323.29)"/><path class="cls-2" d="M257.52,386.81h-5.19a.35.35,0,0,0-.35.35v.73a.35.35,0,0,0,.35.34h1.79v5.58a.34.34,0,0,0,.34.34h.92a.34.34,0,0,0,.34-.34v-5.58h1.8a.35.35,0,0,0,.35-.34v-.73A.35.35,0,0,0,257.52,386.81Z" transform="translate(-234.02 -323.29)"/><path class="cls-2" d="M355.73,392.74h-2c1.26-1.22,2.21-2.27,2.21-3.59a2.14,2.14,0,0,0-2.31-2.21,3.16,3.16,0,0,0-2,.73.34.34,0,0,0-.09.41l.27.61a.33.33,0,0,0,.24.19.31.31,0,0,0,.29-.07,1.92,1.92,0,0,1,1.15-.46.8.8,0,0,1,.92.91c0,.81-.67,1.58-2.28,3.11l-.68.66a.31.31,0,0,0-.1.24v.54a.34.34,0,0,0,.34.34h4.09a.35.35,0,0,0,.35-.34v-.72A.35.35,0,0,0,355.73,392.74Z" transform="translate(-234.02 -323.29)"/><path class="cls-2" d="M359.22,386.94c-1.56,0-2.57,1.45-2.57,3.68s1,3.64,2.46,3.64,2.58-1.36,2.58-3.73S360.76,386.94,359.22,386.94Zm-.05,1.36c.87,0,1,1.59,1,2.27s-.09,2.33-1,2.33c-.58,0-1-.89-1-2.27S358.59,388.3,359.17,388.3Z" transform="translate(-234.02 -323.29)"/><path class="cls-2" d="M364.65,387.05h-.74a.33.33,0,0,0-.17,0l-1.4.75a.36.36,0,0,0-.17.39l.17.66a.35.35,0,0,0,.5.22l.62-.34v5a.35.35,0,0,0,.35.34h.84a.34.34,0,0,0,.34-.34v-6.42A.34.34,0,0,0,364.65,387.05Z" transform="translate(-234.02 -323.29)"/><path class="cls-2" d="M368.44,386.94a2.55,2.55,0,0,0-2.53,2.62,2.2,2.2,0,0,0,2.24,2.31,2.4,2.4,0,0,0,.9-.17,2.05,2.05,0,0,1-.45.59,2,2,0,0,1-1.14.53,3,3,0,0,1-.63,0,.34.34,0,0,0-.38.34v.71a.34.34,0,0,0,.33.35H367a4.61,4.61,0,0,0,.68-.05,3.51,3.51,0,0,0,2.07-1,4.32,4.32,0,0,0,1.21-3.25C370.91,388.14,369.94,386.94,368.44,386.94Zm-.07,1.35c.88,0,1,1.11,1,1.59a.25.25,0,0,1,0,.14,1.11,1.11,0,0,1-1,.5c-.55,0-.89-.39-.89-1S367.83,388.29,368.37,388.29Z" transform="translate(-234.02 -323.29)"/><path class="cls-2" d="M319.68,428.47A20.4,20.4,0,0,1,309.39,426a12.35,12.35,0,0,1-3.36-2.91,12.16,12.16,0,0,1-3.35,2.91c-5.14,3.05-12.35,3-17.22,1.56-13.51-3.95-19.15-18.53-18.69-30.4.81-20.49,18.06-36.54,39.26-36.54s38.46,16.05,39.27,36.54c.46,11.87-5.18,26.45-18.69,30.4A25.12,25.12,0,0,1,319.68,428.47ZM306,415.81a2.2,2.2,0,0,1,2.15,1.73,7,7,0,0,0,3.46,4.64c3.8,2.27,9.79,2.28,13.74,1.13,7.88-2.31,16.1-11.44,15.53-26-.72-18.12-16-32.32-34.88-32.32s-34.16,14.2-34.87,32.32c-.57,14.58,7.65,23.71,15.53,26,3.95,1.15,9.94,1.14,13.74-1.13a7,7,0,0,0,3.46-4.64A2.19,2.19,0,0,1,306,415.81Z" transform="translate(-234.02 -323.29)"/><path class="cls-2" d="M294.21,396.65a1.78,1.78,0,0,1-1.29-.53L285,388.2a1.83,1.83,0,1,1,2.6-2.59l7.91,7.91a1.83,1.83,0,0,1-1.3,3.13Z" transform="translate(-234.02 -323.29)"/><path class="cls-2" d="M286.3,396.65a1.83,1.83,0,0,1-1.3-3.13l7.92-7.91a1.83,1.83,0,1,1,2.59,2.59l-7.91,7.92A1.82,1.82,0,0,1,286.3,396.65Z" transform="translate(-234.02 -323.29)"/><path class="cls-2" d="M325.77,396.65a1.82,1.82,0,0,1-1.3-.53l-7.91-7.92a1.83,1.83,0,0,1,2.59-2.59l7.92,7.91a1.85,1.85,0,0,1,0,2.6A1.82,1.82,0,0,1,325.77,396.65Z" transform="translate(-234.02 -323.29)"/><path class="cls-2" d="M317.86,396.65a1.83,1.83,0,0,1-1.3-3.13l7.91-7.91a1.83,1.83,0,0,1,2.6,2.59l-7.92,7.92A1.78,1.78,0,0,1,317.86,396.65Z" transform="translate(-234.02 -323.29)"/><path class="cls-2" d="M306,411.12c-2.47,0-4.41-2.46-4.41-5.6s1.94-5.59,4.41-5.59,4.42,2.46,4.42,5.59S308.51,411.12,306,411.12Zm0-7.52a2.22,2.22,0,0,0-.74,1.92,2.19,2.19,0,0,0,.75,1.93,2.23,2.23,0,0,0,.74-1.93C306.78,404.29,306.21,403.64,306,403.6Z" transform="translate(-234.02 -323.29)"/><circle class="cls-3" cx="72" cy="72" r="72"/></svg>