<svg id="Layer_1" data-name="Layer 1" xmlns="http://www.w3.org/2000/svg" viewBox="0 0 144.5 144.5"><defs><style>.cls-1{fill:#fff;}.cls-2{fill:none;stroke:#fff;stroke-miterlimit:10;stroke-width:0.5px;}.cls-3{fill:#231f20;}</style></defs><title>BUTT_LOGO</title><circle class="cls-1" cx="72.25" cy="72.25" r="71.99"/><circle class="cls-2" cx="72.25" cy="72.25" r="72"/><path class="cls-3" d="M252.64,414.63a.64.64,0,0,0,.08-.49l-1-4.27a.66.66,0,0,0-.79-.49l-1.27.3a.68.68,0,0,0-.41.29.67.67,0,0,0-.08.5l.47,2-2.57.6a7.32,7.32,0,0,1-.52-1.56,4.6,4.6,0,0,1,.38-3.46,4.43,4.43,0,0,1,2.91-1.92c2.69-.64,4.71.7,5.38,3.57a6.66,6.66,0,0,1,.14,2.73.62.62,0,0,0,.13.51.61.61,0,0,0,.46.25l1.39.1a.66.66,0,0,0,.69-.52,9.35,9.35,0,0,0-.2-3.64c-1.07-4.56-4.59-7-8.77-6a7,7,0,0,0-4.58,3.2,7.73,7.73,0,0,0-.54,5.7,13.46,13.46,0,0,0,1.69,4,.64.64,0,0,0,.55.31l.15,0,5.9-1.38A.66.66,0,0,0,252.64,414.63Z" transform="translate(-233.77 -323.04)"/><path class="cls-3" d="M264.18,427.09a6.39,6.39,0,0,0-.79-5.18,6.67,6.67,0,0,0-4.25-3.15,7.45,7.45,0,0,0-5.51,1.06c-3.56,2.14-4.63,6-2.61,9.33a6.78,6.78,0,0,0,4.11,3.16,6.46,6.46,0,0,0,1.52.19,8.09,8.09,0,0,0,4.15-1.26A7.26,7.26,0,0,0,264.18,427.09Zm-5.06,1.51c-1.95,1.18-4.5,1.41-5.79-.73s.12-4.27,1.95-5.38a5.82,5.82,0,0,1,2.94-.9h.36a3.16,3.16,0,0,1,2.52,1.61C262.37,425.32,261,427.49,259.12,428.6Z" transform="translate(-233.77 -323.04)"/><path class="cls-3" d="M269.62,430.58a.61.61,0,0,0-.47-.17.65.65,0,0,0-.45.2l-8.59,9.24a.64.64,0,0,0,0,.92l5.42,5.05a.67.67,0,0,0,.45.18h0a.64.64,0,0,0,.45-.21l.93-1a.64.64,0,0,0,0-.92l-3.69-3.44,7.22-7.75a.66.66,0,0,0,0-.93Z" transform="translate(-233.77 -323.04)"/><path class="cls-3" d="M281.94,439.9a26.67,26.67,0,0,0-3.46-1.48.65.65,0,0,0-.79.32l-5.69,11a.66.66,0,0,0,.22.85c.8.52,1.73,1.06,2.77,1.6a10.85,10.85,0,0,0,4.87,1.36,6,6,0,0,0,1.67-.23,7.11,7.11,0,0,0,4.36-3.81,6.3,6.3,0,0,0,.43-5.42C285.68,442.47,284.25,441.09,281.94,439.9Zm1.17,8.26h0c-1.41,2.73-3.69,3.38-6.61,1.88l-1-.52,4-7.84a11.38,11.38,0,0,1,1.25.56,5.05,5.05,0,0,1,2.73,2.78A4.06,4.06,0,0,1,283.11,448.16Z" transform="translate(-233.77 -323.04)"/><path class="cls-3" d="M300,446,293,444.55a.65.65,0,0,0-.77.52l-2.46,12.37a.71.71,0,0,0,.1.49.66.66,0,0,0,.42.27l7.34,1.46.13,0a.66.66,0,0,0,.64-.53l.27-1.34a.66.66,0,0,0-.52-.77l-5-1,.64-3.18,4.43.88a.65.65,0,0,0,.49-.1.62.62,0,0,0,.28-.42l.26-1.32a.65.65,0,0,0-.51-.76l-4.44-.88.52-2.63,4.73.94a.7.7,0,0,0,.49-.1.64.64,0,0,0,.28-.42l.27-1.34A.65.65,0,0,0,300,446Z" transform="translate(-233.77 -323.04)"/><path class="cls-3" d="M315.05,445.6l-1.61.13a.64.64,0,0,0-.45.23.67.67,0,0,0-.15.47l.42,5.26c.07.84.14,1.63.23,2.41-.38-.52-.77-1.05-1.2-1.59l-4.77-6a.63.63,0,0,0-.56-.24l-1.88.15a.65.65,0,0,0-.59.7l1,12.57a.63.63,0,0,0,.22.45.66.66,0,0,0,.43.15h.05l1.62-.13a.65.65,0,0,0,.59-.7l-.43-5.37c-.08-1-.15-1.81-.23-2.59.41.57.87,1.18,1.39,1.84l4.73,6a.64.64,0,0,0,.56.25l1.74-.14a.65.65,0,0,0,.6-.7l-1-12.57A.65.65,0,0,0,315.05,445.6Z" transform="translate(-233.77 -323.04)"/><path class="cls-3" d="M336.62,443.7a3.39,3.39,0,0,0-.11-3.06,3.19,3.19,0,0,0-2.53-1.72,6.3,6.3,0,0,0-4.05,1.08,18.14,18.14,0,0,0-2.71,1.85.63.63,0,0,0-.14.81l6.1,10.8a.64.64,0,0,0,.57.34.69.69,0,0,0,.24-.05,21.3,21.3,0,0,0,2.47-1.22c2.07-1.17,3.26-2.33,3.73-3.66a3.92,3.92,0,0,0-.31-3.28A3.68,3.68,0,0,0,336.62,443.7ZM333,441.63a1.13,1.13,0,0,1,1,.65c.43.78-.05,1.71-1.23,2.37l-.79.45-1.4-2.47q.32-.21.75-.45A3.43,3.43,0,0,1,333,441.63Zm1.94,8.79-1.75-3.11.67-.37a4,4,0,0,1,2-.62,1.46,1.46,0,0,1,1.26.79,1.43,1.43,0,0,1,0,1.54,4,4,0,0,1-1.55,1.39Z" transform="translate(-233.77 -323.04)"/><path class="cls-3" d="M346.17,427.57a.66.66,0,0,0-.47-.19.63.63,0,0,0-.46.2L344,428.82a.65.65,0,0,0,0,.92l5.34,5.22c1.63,1.58,1.82,3,.61,4.21-1.42,1.45-3,.47-4.13-.6l-5.34-5.22a.56.56,0,0,0-.46-.18.64.64,0,0,0-.46.19l-1.22,1.25a.66.66,0,0,0,0,.92l5.32,5.19a6.35,6.35,0,0,0,4.35,2.11h.05a5.22,5.22,0,0,0,3.72-1.78c2.53-2.59,2.38-5.63-.4-8.35Z" transform="translate(-233.77 -323.04)"/><path class="cls-3" d="M362.36,425,353.08,420l1.63-3a.61.61,0,0,0,.06-.49.66.66,0,0,0-.32-.39l-1.21-.67a.67.67,0,0,0-.5-.05.64.64,0,0,0-.39.31l-4.72,8.66a.67.67,0,0,0-.05.5.64.64,0,0,0,.31.39l1.22.66a.66.66,0,0,0,.89-.26l1.62-3,9.29,5.06a.65.65,0,0,0,.31.08.57.57,0,0,0,.18,0,.62.62,0,0,0,.39-.32l.84-1.52a.67.67,0,0,0,.05-.5A.62.62,0,0,0,362.36,425Z" transform="translate(-233.77 -323.04)"/><path class="cls-3" d="M367.94,409.43,357.66,407l.79-3.32a.65.65,0,0,0-.48-.79l-1.35-.32a.65.65,0,0,0-.78.48l-2.3,9.59a.67.67,0,0,0,.08.5.65.65,0,0,0,.4.29l1.35.32a.39.39,0,0,0,.15,0,.65.65,0,0,0,.64-.5l.79-3.3,10.28,2.46a.67.67,0,0,0,.5-.08.68.68,0,0,0,.29-.41l.41-1.69A.65.65,0,0,0,367.94,409.43Z" transform="translate(-233.77 -323.04)"/><path class="cls-3" d="M268,368.43l-4.51-3.67.64-.75h0a8.49,8.49,0,0,0,2.21-6.08,5.7,5.7,0,0,0-2.26-4,5.39,5.39,0,0,0-4.48-1.21,8.48,8.48,0,0,0-4.8,3.33,29.52,29.52,0,0,0-2.64,3.78.87.87,0,0,0,.21,1.12l13.05,10.62a.87.87,0,0,0,.55.2h.09a.91.91,0,0,0,.6-.32l1.46-1.8A.88.88,0,0,0,268,368.43Zm-10.45-10.19a4.34,4.34,0,0,1,2.12-1.57,2.09,2.09,0,0,1,1.91.51,2.46,2.46,0,0,1,1,1.95,4.54,4.54,0,0,1-1.17,2.61c-.25.31-.48.56-.69.78l-4-3.23C257,359,257.23,358.65,257.56,358.24Z" transform="translate(-233.77 -323.04)"/><path class="cls-3" d="M288.3,350.46a.89.89,0,0,0-1.19-.36L281,353.38,279,349.52l5.38-2.89a.88.88,0,0,0,.36-1.19l-.86-1.61a.87.87,0,0,0-.52-.42.82.82,0,0,0-.67.07l-5.39,2.89-1.71-3.19,5.73-3.08a.88.88,0,0,0,.36-1.19l-.87-1.63a.88.88,0,0,0-1.19-.36l-8.56,4.6a.89.89,0,0,0-.36,1.2l8.07,15a.87.87,0,0,0,.77.47.91.91,0,0,0,.42-.11l8.91-4.79a.88.88,0,0,0,.36-1.19Z" transform="translate(-233.77 -323.04)"/><path class="cls-3" d="M307,347.2a.87.87,0,0,0-1-.77l-6.87.77-.49-4.35,6.07-.68a.89.89,0,0,0,.78-1l-.21-1.8a.83.83,0,0,0-.32-.59.85.85,0,0,0-.65-.19l-6.07.69-.41-3.6,6.47-.73a.89.89,0,0,0,.78-1l-.21-1.83a.88.88,0,0,0-1-.78l-9.66,1.1a.87.87,0,0,0-.77,1l1.91,16.92a.88.88,0,0,0,.87.78h.1L306.39,350a.87.87,0,0,0,.6-.32.9.9,0,0,0,.18-.65Z" transform="translate(-233.77 -323.04)"/><path class="cls-3" d="M331.1,336.15l-2.76-.81a.85.85,0,0,0-.73.1l-7,4.55,1.61-5.53a.88.88,0,0,0-.59-1.09l-2.23-.65a.87.87,0,0,0-.67.07.83.83,0,0,0-.42.53l-4.79,16.34a.87.87,0,0,0,.6,1.09l2.23.66a.89.89,0,0,0,1.09-.6l1.73-5.91.94-.56,3,8.65a.88.88,0,0,0,.58.56l2.64.78a1,1,0,0,0,.25,0,.93.93,0,0,0,.64-.27.9.9,0,0,0,.19-.9l-3.75-10.71,7.68-4.74a.89.89,0,0,0,.41-.86A.88.88,0,0,0,331.1,336.15Z" transform="translate(-233.77 -323.04)"/><path class="cls-3" d="M345.87,345.06a.92.92,0,0,0-.44-.7l-2.12-1.2a.88.88,0,0,0-1.07.15,34.5,34.5,0,0,1-4.55,3.84.88.88,0,0,0-.4.77.9.9,0,0,0,.47.74l1.32.71a.91.91,0,0,0,.42.11.93.93,0,0,0,.33-.07,28.89,28.89,0,0,0,5.71-3.6A.87.87,0,0,0,345.87,345.06Z" transform="translate(-233.77 -323.04)"/><path class="cls-3" d="M360.57,361.64a9.47,9.47,0,0,0-1.93-4.06,7.48,7.48,0,0,0-4.11-2.86,5.09,5.09,0,0,0-4.34.9c-2.06,1.59-2.47,4.1-1.24,7.67.76,2.4.47,3.18-.32,3.79a1.67,1.67,0,0,1-1.51.33,3.48,3.48,0,0,1-1.84-1.38,7.71,7.71,0,0,1-1.48-3.56.91.91,0,0,0-.42-.64.89.89,0,0,0-.76-.08l-1.82.66a.88.88,0,0,0-.57.91,10.5,10.5,0,0,0,2.11,4.76,8,8,0,0,0,4.56,3.19,5.27,5.27,0,0,0,4.39-1c2.76-2.11,2.3-5.05,1.48-7.65s-.61-3.31.12-3.87a1.45,1.45,0,0,1,1.14-.26,3,3,0,0,1,1.72,1.23,6.68,6.68,0,0,1,1.27,2.82.85.85,0,0,0,.41.6.91.91,0,0,0,.72.09l1.82-.59A.88.88,0,0,0,360.57,361.64Z" transform="translate(-233.77 -323.04)"/><ellipse class="cls-3" cx="56.38" cy="68.1" rx="4.25" ry="5.19"/><ellipse class="cls-3" cx="88.14" cy="68.1" rx="4.25" ry="5.19"/><path class="cls-3" d="M308.41,403.22a5.16,5.16,0,0,1-2.38.6,5.23,5.23,0,0,1-2.36-.59,2.08,2.08,0,0,0-2.16,3.55,9.2,9.2,0,0,0,9.05,0,2.08,2.08,0,0,0-2.15-3.56Z" transform="translate(-233.77 -323.04)"/><path class="cls-3" d="M319.68,428.47A20.4,20.4,0,0,1,309.39,426a12.35,12.35,0,0,1-3.36-2.91,12.06,12.06,0,0,1-3.36,2.91c-5.13,3.05-12.34,3-17.21,1.56-13.51-3.95-19.15-18.53-18.69-30.4.81-20.49,18.06-36.54,39.26-36.54s38.46,16.05,39.27,36.54c.46,11.87-5.18,26.45-18.69,30.4A25.12,25.12,0,0,1,319.68,428.47ZM306,415.81a2.2,2.2,0,0,1,2.15,1.73,7,7,0,0,0,3.46,4.64c3.8,2.27,9.79,2.28,13.74,1.13,7.88-2.31,16.1-11.44,15.53-26-.72-18.12-16-32.32-34.88-32.32s-34.16,14.2-34.87,32.32c-.57,14.58,7.65,23.71,15.53,26,3.95,1.15,9.93,1.14,13.74-1.13a7,7,0,0,0,3.46-4.64A2.19,2.19,0,0,1,306,415.81Z" transform="translate(-233.77 -323.04)"/><path class="cls-3" d="M245.77,392.74h-2.69V391h2.38a.35.35,0,0,0,.35-.34V390a.35.35,0,0,0-.35-.35h-2.38v-1.41h2.54a.34.34,0,0,0,.34-.34v-.72a.35.35,0,0,0-.34-.35h-3.79a.35.35,0,0,0-.35.35v6.65a.35.35,0,0,0,.35.34h3.94a.34.34,0,0,0,.35-.34v-.72A.35.35,0,0,0,245.77,392.74Z" transform="translate(-233.77 -323.04)"/><path class="cls-3" d="M249.7,389.71c-1-.36-1.17-.6-1.17-.95s.25-.66,1-.66a2.54,2.54,0,0,1,1.18.28.35.35,0,0,0,.48-.19l.25-.7a.34.34,0,0,0-.16-.42,3.59,3.59,0,0,0-1.71-.36c-1.52,0-2.62.9-2.62,2.14,0,1,.68,1.74,2.08,2.21,1,.37,1.1.67,1.1,1,0,.49-.42.79-1.13.79a3.05,3.05,0,0,1-1.45-.39.33.33,0,0,0-.29,0,.35.35,0,0,0-.21.22l-.23.72a.33.33,0,0,0,.15.39,4.09,4.09,0,0,0,2,.48c1.94,0,2.8-1.14,2.8-2.26C251.71,390.63,250.69,390.08,249.7,389.71Z" transform="translate(-233.77 -323.04)"/><path class="cls-3" d="M257.53,386.81h-5.2a.35.35,0,0,0-.35.35v.73a.35.35,0,0,0,.35.34h1.79v5.58a.34.34,0,0,0,.34.34h.92a.34.34,0,0,0,.34-.34v-5.58h1.81a.34.34,0,0,0,.34-.34v-.73A.35.35,0,0,0,257.53,386.81Z" transform="translate(-233.77 -323.04)"/><path class="cls-3" d="M355.74,392.74h-2c1.26-1.22,2.21-2.27,2.21-3.59a2.14,2.14,0,0,0-2.3-2.21,3.16,3.16,0,0,0-2,.73.35.35,0,0,0-.09.41l.27.61a.35.35,0,0,0,.24.19.33.33,0,0,0,.3-.07,1.89,1.89,0,0,1,1.14-.46.81.81,0,0,1,.93.91c0,.81-.68,1.58-2.29,3.11l-.68.66a.35.35,0,0,0-.1.24v.54a.34.34,0,0,0,.34.34h4.1a.34.34,0,0,0,.34-.34v-.72A.35.35,0,0,0,355.74,392.74Z" transform="translate(-233.77 -323.04)"/><path class="cls-3" d="M359.22,386.94c-1.56,0-2.57,1.45-2.57,3.68s1,3.64,2.47,3.64,2.57-1.36,2.57-3.73S360.77,386.94,359.22,386.94Zm-.05,1.36c.87,0,1,1.59,1,2.27s-.09,2.33-1,2.33c-.58,0-1-.89-1-2.27S358.6,388.3,359.17,388.3Z" transform="translate(-233.77 -323.04)"/><path class="cls-3" d="M364.65,387.05h-.74a.29.29,0,0,0-.16,0l-1.4.75a.35.35,0,0,0-.17.39l.16.66a.35.35,0,0,0,.2.23.35.35,0,0,0,.3,0l.63-.34v5a.34.34,0,0,0,.34.34h.84a.34.34,0,0,0,.34-.34v-6.42A.34.34,0,0,0,364.65,387.05Z" transform="translate(-233.77 -323.04)"/><path class="cls-3" d="M368.44,386.94a2.55,2.55,0,0,0-2.53,2.62,2.2,2.2,0,0,0,2.24,2.31,2.46,2.46,0,0,0,.91-.17,1.92,1.92,0,0,1-.46.59,2,2,0,0,1-1.14.53,3,3,0,0,1-.63,0,.31.31,0,0,0-.26.09.32.32,0,0,0-.12.25v.71a.35.35,0,0,0,.33.35H367a4.83,4.83,0,0,0,.69-.05,3.48,3.48,0,0,0,2.06-1,4.32,4.32,0,0,0,1.21-3.25C370.91,388.14,369.94,386.94,368.44,386.94Zm-.06,1.35c.87,0,1,1.11,1,1.59a.25.25,0,0,1,0,.14,1.08,1.08,0,0,1-1,.5c-.55,0-.89-.39-.89-1S367.83,388.29,368.38,388.29Z" transform="translate(-233.77 -323.04)"/></svg>